<?xml version="1.0" encoding="utf-8"?>
<!-- Generator: Adobe Illustrator 22.1.0, SVG Export Plug-In . SVG Version: 6.00 Build 0)  -->
<svg version="1.1" id="Layer_1" xmlns="http://www.w3.org/2000/svg" xmlns:xlink="http://www.w3.org/1999/xlink" x="0px" y="0px"
	 viewBox="0 0 77.8 80" style="enable-background:new 0 0 77.8 80;" xml:space="preserve">
<style type="text/css">
	.st0{clip-path:url(#SVGID_2_);fill-rule:evenodd;clip-rule:evenodd;fill:#EE4646;}
	.st1{clip-path:url(#SVGID_2_);fill-rule:evenodd;clip-rule:evenodd;fill:#FF7E00;}
	.st2{clip-path:url(#SVGID_2_);fill-rule:evenodd;clip-rule:evenodd;fill:#FFCC00;}
	.st3{clip-path:url(#SVGID_2_);fill-rule:evenodd;clip-rule:evenodd;fill:#FF68D6;}
	.st4{clip-path:url(#SVGID_2_);fill-rule:evenodd;clip-rule:evenodd;fill:#00A3EF;}
	.st5{clip-path:url(#SVGID_2_);fill-rule:evenodd;clip-rule:evenodd;fill:#263DB8;}
</style>
<g>
	<defs>
		<rect id="SVGID_1_" width="77.8" height="80"/>
	</defs>
	<clipPath id="SVGID_2_">
		<use xlink:href="#SVGID_1_"  style="overflow:visible;"/>
	</clipPath>
	<path class="st0" d="M9.3,31.5c1-0.8,2-1.6,3-2.3c7.5-5,38.3-25.6,38.4-25.6c0.3-0.2,0.6-0.3,1-0.3c0.9,0,1.7,0.8,1.7,1.7
		c0,0.1,0,0.1,0,0.3c0,0-2.9,50.4-3,52c0,6.6-0.8,12.6-2.9,14.7C36.6,82.7,19,82.7,8.1,71.8c-9.8-9.8-10.8-25.1-2.9-36
		C6.5,34.2,7.8,32.8,9.3,31.5L9.3,31.5z"/>
	<path class="st1" d="M22.7,46.3C26,34.8,34.8,25.6,46.3,22l29.4-9.4c0.1-0.1,0.3-0.1,0.5-0.1c0.9,0,1.7,0.8,1.7,1.7
		c0,0.3-0.1,0.6-0.2,0.9c0,0-19.5,40.8-23.1,49.5c-1.2,2.8-2.9,5.5-5.2,7.8C44.6,77,35.9,80,29.8,80c-0.2,0-0.3,0-0.5,0
		c-8.1-0.2-13.8-8.2-11.6-16L22.7,46.3z"/>
	<path class="st2" d="M11.5,37.2c-0.4-1.5,0.3-3.1,1.7-3.9l55.8-33c0.3-0.2,0.7-0.3,1-0.3c0.9,0,1.7,0.8,1.7,1.7
		c0,0.1,0,0.3-0.1,0.5L51.7,63.5c-1.1,3.5-3.1,6.7-5.8,9.5c-9.4,9.4-24.5,9.4-33.9,0C2.9,64,2.5,49.8,10.7,40.3
		C11.4,39.5,11.7,38.3,11.5,37.2z"/>
	<path class="st3" d="M48.8,57.6c1.2-3.4,1.5-7,1-10.5L45.3,15c-0.1-1.3-1.5-1.9-2.5-1.3L17.1,28.9c0,0-3.8,2.3-5.4,4
		c-9.4,9.4-9.4,24.6,0,33.9c0.1,0.1,0.3,0.3,0.4,0.4c11.7,11.2,31.2,6.3,36.5-9.1L48.8,57.6z"/>
	<path class="st4" d="M68,20.1c0.7-0.2,1.5,0.2,1.9,0.8c0.1,0.2,0.2,0.5,0.2,0.8c0,0.3-0.1,0.6-0.3,0.9L50.6,62.5
		c-1.2,2.8-2.9,5.4-5.1,7.6c-4.7,4.7-8.4,7-18.3,7c-6.2,0-10.9-2.3-15.6-7c-9.4-9.4-9.4-24.5,0-33.9c3.9-3.9,8.9-6.2,14-6.8
		c0,0,0,0,0,0L68,20.1z"/>
	<path class="st5" d="M44.8,25.2c0.7-0.1,1.5,0.2,1.9,0.9c0.1,0.2,0.2,0.5,0.2,0.8l3.3,21.6c1.6,7.6-0.5,15.9-6.5,21.8
		c-9.4,9.4-24.6,9.4-33.9,0c-9.4-9.4-9.4-24.6,0-33.9c3.9-3.9,8.9-6.2,14-6.8L44.8,25.2z"/>
</g>
</svg>
