<?xml version="1.0" encoding="utf-8"?>
<!-- Generator: Adobe Illustrator 22.1.0, SVG Export Plug-In . SVG Version: 6.00 Build 0)  -->
<svg version="1.1" id="Layer_1" xmlns="http://www.w3.org/2000/svg" xmlns:xlink="http://www.w3.org/1999/xlink" x="0px" y="0px"
	 viewBox="0 0 119 24" style="enable-background:new 0 0 119 24;" xml:space="preserve">
<style type="text/css">
	.st0{fill:#263DB8;}
	.st1{fill:#00ADEE;}
</style>
<g>
	<g>
		<path class="st0" d="M20,20.4c-2.6,2.5-5.2,3.5-8.4,3.5C5.3,23.9,0,20.1,0,12.3S5.3,0.8,11.6,0.8c3.1,0,5.5,0.9,7.8,3.3l-3.4,3.6
			c-1.3-1.2-2.9-1.7-4.4-1.7c-3.7,0-6.3,2.7-6.3,6.5c0,4.2,2.9,6.4,6.3,6.4c1.7,0,3.5-0.5,4.8-1.8L20,20.4z"/>
	</g>
	<g>
		<path class="st0" d="M44.6,12.3c0,6.3-4.3,11.4-11.4,11.4s-11.3-5.1-11.3-11.4C21.8,6,26.2,1,33.1,1S44.6,6,44.6,12.3 M27.3,12.3
			c0,3.3,2,6.5,6,6.5s6-3.1,6-6.5c0-3.3-2.3-6.5-6-6.5C29.3,5.8,27.3,9,27.3,12.3"/>
	</g>
	<g>
		<path class="st0" d="M63.7,5.1c-2-3.1-4.5-4-7.3-4c-6.3,0-9.2,3.8-9.2,10.4v11.8h5.4V11.5c0-2.9,1.2-5.4,4.2-5.4
			c2.9,0,4.8,2.5,4.8,5.4v5.7H66v-5.7c0-2.9,1.8-5.4,4.8-5.4c2.9,0,4.2,2.5,4.2,5.4v11.8h5.4V11.5c0-6.6-3.1-10.4-9.3-10.4
			C68.2,1.1,65.6,2,63.7,5.1"/>
	</g>
	<g>
		<path class="st0" d="M88.4,14.3c0.4,2.7,2.7,4.7,6.6,4.7c2,0,4.6-0.8,5.9-2.1l3.5,3.4c-2.3,2.4-6.1,3.6-9.4,3.6
			c-7.5,0-12-4.7-12-11.6c0-6.6,4.6-11.4,11.6-11.4c7.3,0,11.9,4.6,11,13.5H88.4z M100.2,9.8c-0.4-2.9-2.6-4.3-5.7-4.3
			c-2.9,0-5.4,1.4-6.2,4.3H100.2z"/>
	</g>
	<g>
		<path class="st0" d="M118.9,18c-0.8,0.4-1.8,0.7-2.6,0.7c-1.7,0-2.9-1-2.9-3.1v-7h3.7V3.9h-3.6V0.1h-5.4v6.3v7v2.2
			c0,5.5,3.1,8.1,7.8,7.9c1.1,0,2.1-0.2,3-0.4v-5L118.9,18z"/>
	</g>
	<g>
		<rect x="113.5" y="3.9" class="st1" width="3.6" height="4.7"/>
	</g>
</g>
</svg>
