<svg xmlns="http://www.w3.org/2000/svg" xmlns:xlink="http://www.w3.org/1999/xlink" viewBox="0 0 77.8 80"><defs><path id="a" d="M0 0h77.8v80H0z"/></defs><clipPath id="b"><use xlink:href="#a" overflow="visible"/></clipPath><path d="M9.3 31.5c1-.8 2-1.6 3-2.3 7.5-5 38.3-25.6 38.4-25.6.3-.2.6-.3 1-.3.9 0 1.7.8 1.7 1.7v.3s-2.9 50.4-3 52c0 6.6-.8 12.6-2.9 14.7C36.6 82.7 19 82.7 8.1 71.8c-9.8-9.8-10.8-25.1-2.9-36 1.3-1.6 2.6-3 4.1-4.3z" clip-path="url(#b)" fill-rule="evenodd" clip-rule="evenodd" fill="#ee4646"/><path d="M22.7 46.3C26 34.8 34.8 25.6 46.3 22l29.4-9.4c.1-.1.3-.1.5-.1.9 0 1.7.8 1.7 1.7 0 .3-.1.6-.2.9 0 0-19.5 40.8-23.1 49.5-1.2 2.8-2.9 5.5-5.2 7.8C44.6 77 35.9 80 29.8 80h-.5c-8.1-.2-13.8-8.2-11.6-16l5-17.7z" clip-path="url(#b)" fill-rule="evenodd" clip-rule="evenodd" fill="#ff7e00"/><path d="M11.5 37.2c-.4-1.5.3-3.1 1.7-3.9L69 .3c.3-.2.7-.3 1-.3.9 0 1.7.8 1.7 1.7 0 .1 0 .3-.1.5L51.7 63.5c-1.1 3.5-3.1 6.7-5.8 9.5-9.4 9.4-24.5 9.4-33.9 0-9.1-9-9.5-23.2-1.3-32.7.7-.8 1-2 .8-3.1z" clip-path="url(#b)" fill-rule="evenodd" clip-rule="evenodd" fill="#fc0"/><path d="M48.8 57.6c1.2-3.4 1.5-7 1-10.5L45.3 15c-.1-1.3-1.5-1.9-2.5-1.3L17.1 28.9s-3.8 2.3-5.4 4c-9.4 9.4-9.4 24.6 0 33.9l.4.4c11.7 11.2 31.2 6.3 36.5-9.1l.2-.5z" clip-path="url(#b)" fill-rule="evenodd" clip-rule="evenodd" fill="#ff68d6"/><path d="M68 20.1c.7-.2 1.5.2 1.9.8.1.2.2.5.2.8 0 .3-.1.6-.3.9L50.6 62.5c-1.2 2.8-2.9 5.4-5.1 7.6-4.7 4.7-8.4 7-18.3 7-6.2 0-10.9-2.3-15.6-7-9.4-9.4-9.4-24.5 0-33.9 3.9-3.9 8.9-6.2 14-6.8L68 20.1z" clip-path="url(#b)" fill-rule="evenodd" clip-rule="evenodd" fill="#00a3ef"/><path d="M44.8 25.2c.7-.1 1.5.2 1.9.9.1.2.2.5.2.8l3.3 21.6c1.6 7.6-.5 15.9-6.5 21.8-9.4 9.4-24.6 9.4-33.9 0-9.4-9.4-9.4-24.6 0-33.9 3.9-3.9 8.9-6.2 14-6.8l21-4.4z" clip-path="url(#b)" fill-rule="evenodd" clip-rule="evenodd" fill="#263db8"/></svg>